# xmcd CD database file
#
# Track frame offsets:
#	150
#	54485
#	99966
#	135717
#	174668
#
# Disc length: 2763 seconds
#
# Revision: 0
# Processed by: cddbd v1.5.2PL0 Copyright (c) Steve Scherf et al.
# Submitted via: CDex 1.77
#
DISCID=3b0ac905
DTITLE=Kenny Barron - Innocence
DYEAR=1978
DGENRE=Jazz
TTITLE0=Sunshower
TTITLE1=Innocence
TTITLE2=Bacchanal
TTITLE3=Sunday Morning
TTITLE4=Nothing to Fear
EXTD=YEAR: 1978
EXTT0=
EXTT1=
EXTT2=
EXTT3=
EXTT4=
PLAYORDER=
